<?xml version="1.0" encoding="UTF-8"?>
<svg xmlns="http://www.w3.org/2000/svg" xmlns:xlink="http://www.w3.org/1999/xlink" width="200px" height="200px" viewBox="0 0 200 200" version="1.1">
<g id="surface1">
<path style=" stroke:none;fill-rule:nonzero;fill:rgb(0%,0%,0%);fill-opacity:1;" d="M 108.800781 29.699219 C 107.5 30 107.300781 30.699219 108.101562 33.300781 C 109.101562 37 108.601562 37.601562 103.898438 38.5 C 100.800781 39.101562 100.300781 38.898438 99.199219 36.601562 C 97.898438 33.800781 97.300781 33.5 95 35 C 93.800781 35.800781 93.800781 36.101562 95.300781 37.800781 C 97.601562 40.398438 97.5 41.300781 94.101562 43.699219 L 91.300781 45.800781 L 89.101562 43.699219 C 87.101562 41.699219 86.898438 41.699219 85.300781 43.199219 C 83.800781 44.800781 83.800781 45 86 46.800781 C 88 48.398438 88.101562 48.898438 87.101562 50.898438 C 86.101562 52.601562 86.101562 53.5 87.101562 54.601562 C 88 55.699219 87.898438 56 86.101562 56 C 83.199219 56 82 59.398438 81 69.699219 C 80.5 74.199219 79.898438 78.398438 79.5 79 C 79.199219 79.5 76.898438 80 74.398438 80 L 70 80 L 70 45.101562 L 74.800781 44.800781 C 78.199219 44.601562 79.5 44.101562 79.5 43 C 79.5 41.800781 78.199219 41.5 73.5 41.5 L 67.5 41.5 L 66.5 81.5 L 49.300781 110.199219 C 39.800781 125.898438 31.300781 141.199219 30.398438 144.101562 C 29.199219 147.699219 28.601562 152.800781 28.601562 160.398438 L 28.5 171.5 L 83 171.699219 L 137.5 172 L 154.800781 139.199219 L 172 106.398438 L 172 74.898438 C 172 57.601562 171.601562 42.898438 171.101562 42.199219 C 169.898438 40.199219 153.5 41 153.5 43 C 153.5 44.199219 155.101562 44.601562 160.800781 44.800781 L 168 45.101562 L 168 80 L 161.101562 80 C 153.300781 80 153.101562 79.800781 152.898438 70.5 C 152.800781 63.601562 150.898438 57.699219 148.300781 56.5 C 146.800781 55.699219 146.398438 55 147 54 C 147.5 53.199219 147.199219 51.699219 146.199219 50.199219 C 144.699219 47.898438 144.800781 47.699219 146.898438 46.101562 C 148.898438 44.5 149 44.199219 147.601562 43 C 146.199219 41.898438 145.699219 42 144 43.5 C 142.199219 45.101562 142 45.101562 139.101562 43.398438 C 135.601562 41.300781 135.398438 40.800781 137.5 39 C 139.300781 37.5 139.398438 35.398438 137.800781 34.398438 C 137.199219 34 135.800781 34.800781 134.5 36.398438 C 132.5 38.898438 132 39 128.898438 38.199219 C 127 37.699219 125.601562 36.898438 125.601562 36.398438 C 125.699219 35.898438 126 34.300781 126.398438 32.898438 C 126.800781 31 126.5 30 125.398438 29.601562 C 123 28.699219 122 29.800781 122 33.601562 L 122 37.101562 L 117.300781 36.800781 C 112.5 36.5 112.5 36.5 112.199219 32.699219 C 112 30.699219 111.601562 29.101562 111.199219 29.101562 C 110.800781 29.199219 109.800781 29.398438 108.800781 29.699219 Z M 132.5 43.199219 C 135.300781 44.699219 139 47.300781 140.800781 49.101562 C 144.398438 52.800781 144.101562 54.300781 138.699219 58.398438 C 125.5 68.5 103.300781 67.398438 92.5 56.101562 C 89.101562 52.5 89.398438 51.398438 95.300781 46.699219 C 101.300781 41.800781 108.199219 39.898438 118.5 40.300781 C 125.800781 40.601562 128.5 41.101562 132.5 43.199219 Z M 93.5 62.101562 C 93.101562 62.601562 92.300781 63 91.5 63 C 90.800781 63 88.800781 64.199219 87.101562 65.601562 C 84.800781 67.5 84 67.800781 84 66.699219 C 84 63.398438 86 60.101562 88.199219 59.800781 C 91 59.300781 94.300781 60.699219 93.5 62.101562 Z M 149 63.601562 C 149 64.300781 149.300781 65.699219 149.699219 66.699219 C 150.199219 68.101562 149.601562 67.800781 147.101562 65.699219 C 145.300781 64.199219 142.898438 63 141.800781 63 C 138.800781 63 140.199219 60.601562 143.601562 59.898438 C 146.5 59.300781 149 61 149 63.601562 Z M 108 67.5 C 115.199219 69.398438 122.300781 69 130.300781 66.398438 C 136.101562 64.5 140.800781 65.199219 144.898438 68.5 C 148.601562 71.699219 151.300781 78.398438 150.601562 82.5 C 149 90.800781 133 98 132.199219 90.898438 C 132 88.800781 132.601562 87.800781 135.5 86 C 139.5 83.5 141.398438 80.601562 140.601562 78.300781 C 140 76.898438 139.800781 76.898438 138.199219 78.398438 C 136.699219 79.699219 134.101562 80 124.601562 80 L 113 80 L 112.300781 77 L 111.699219 73.898438 L 103.101562 74.199219 C 96.800781 74.398438 94.601562 74.800781 94.800781 75.800781 C 94.898438 76.5 94.300781 77.300781 93.5 77.601562 C 91 78.601562 91.800781 80.199219 97.199219 85.199219 C 101.601562 89.199219 102.300781 90.300781 101.398438 91.800781 C 99.800781 94.398438 96.5 94.398438 91.398438 91.898438 C 83.300781 88 80.898438 80.398438 85.300781 72.5 C 89.5 65 94.300781 64 108 67.5 Z M 110 82.699219 C 112.398438 95.300781 112.601562 94 108.300781 94 C 104.5 94 104.398438 93.898438 104.800781 91 C 105.101562 88.601562 104.601562 87.398438 102.199219 85.199219 C 100.5 83.601562 98.800781 81.101562 98.398438 79.699219 C 97.800781 77 97.800781 77 103.300781 77 L 108.898438 77 Z M 80.5 85.199219 C 81.601562 88.601562 86 93 90.5 95.101562 C 93.5 96.5 96.898438 97 104.601562 97 C 110.101562 97 114.898438 96.800781 115.199219 96.5 C 115.5 96.199219 115.199219 93 114.5 89.5 L 113.300781 83 L 134.300781 83 L 131.601562 85.101562 C 129.800781 86.5 129 88.101562 129 90.199219 C 129 97.101562 135.300781 98.898438 143.800781 94.601562 C 149.101562 91.898438 151.398438 89.699219 152.898438 85.699219 C 153.898438 83.101562 154.199219 83 161 83 L 168 83 L 168 107.199219 L 153.300781 135.101562 L 138.5 162.898438 L 138 155.800781 C 137.699219 151.398438 137 148.5 136.300781 148.199219 C 135.300781 147.898438 135 150.398438 135 158.398438 L 135 169 L 31.800781 169 L 32.199219 157.300781 C 32.699219 143.300781 31.199219 146.699219 53.300781 109.699219 L 69.300781 83 L 74.601562 83 C 79.199219 83 80 83.300781 80.5 85.199219 Z M 80.5 85.199219 "/>
<path style=" stroke:none;fill-rule:nonzero;fill:rgb(0%,0%,0%);fill-opacity:1;" d="M 108.898438 48.898438 C 105.601562 51.601562 105.601562 58.398438 108.898438 61.101562 C 112.5 64 118.398438 63.601562 120.898438 60.398438 C 127.199219 52.398438 116.800781 42.5 108.898438 48.898438 Z M 108.898438 48.898438 "/>
<path style=" stroke:none;fill-rule:nonzero;fill:rgb(0%,0%,0%);fill-opacity:1;" d="M 150.199219 115.300781 C 144 127.101562 139 137 139 137.300781 C 139 137.699219 139.601562 138 140.398438 138 C 142.101562 138 164.300781 96.398438 163.5 94.898438 C 163.101562 94.398438 162.5 94 162.101562 94 C 161.699219 94 156.398438 103.601562 150.199219 115.300781 Z M 150.199219 115.300781 "/>
<path style=" stroke:none;fill-rule:nonzero;fill:rgb(0%,0%,0%);fill-opacity:1;" d="M 39.5 145 C 39.199219 145.601562 39.5 146.199219 40.199219 146.5 C 42.800781 147.5 126.5 146.5 126.5 145.5 C 126.5 144.101562 40.398438 143.601562 39.5 145 Z M 39.5 145 "/>
</g>
</svg>
